<?xml version="1.0" encoding="utf-8" standalone="no"?>
<!DOCTYPE svg PUBLIC "-//W3C//DTD SVG 1.1//EN"
  "http://www.w3.org/Graphics/SVG/1.1/DTD/svg11.dtd">
<svg xmlns:xlink="http://www.w3.org/1999/xlink" width="460.8pt" height="345.6pt" viewBox="0 0 460.8 345.6" xmlns="http://www.w3.org/2000/svg" version="1.1">
 <metadata>
  <rdf:RDF xmlns:dc="http://purl.org/dc/elements/1.1/" xmlns:cc="http://creativecommons.org/ns#" xmlns:rdf="http://www.w3.org/1999/02/22-rdf-syntax-ns#">
   <cc:Work>
    <dc:type rdf:resource="http://purl.org/dc/dcmitype/StillImage"/>
    <dc:date>2022-09-05T12:58:53.403062</dc:date>
    <dc:format>image/svg+xml</dc:format>
    <dc:creator>
     <cc:Agent>
      <dc:title>Matplotlib v3.5.3, https://matplotlib.org/</dc:title>
     </cc:Agent>
    </dc:creator>
   </cc:Work>
  </rdf:RDF>
 </metadata>
 <defs>
  <style type="text/css">*{stroke-linejoin: round; stroke-linecap: butt}</style>
 </defs>
 <g id="figure_1">
  <g id="patch_1">
   <path d="M 0 345.6 
L 460.8 345.6 
L 460.8 0 
L 0 0 
z
" style="fill: #ffffff"/>
  </g>
  <g id="axes_1">
   <g id="patch_2">
    <path d="M 57.6 307.584 
L 414.72 307.584 
L 414.72 41.472 
L 57.6 41.472 
z
" style="fill: #ffffff"/>
   </g>
   <g id="PathCollection_1">
    <defs>
     <path id="m3e361a92b0" d="M 0 2.236068 
C 0.593012 2.236068 1.161816 2.000462 1.581139 1.581139 
C 2.000462 1.161816 2.236068 0.593012 2.236068 0 
C 2.236068 -0.593012 2.000462 -1.161816 1.581139 -1.581139 
C 1.161816 -2.000462 0.593012 -2.236068 0 -2.236068 
C -0.593012 -2.236068 -1.161816 -2.000462 -1.581139 -1.581139 
C -2.000462 -1.161816 -2.236068 -0.593012 -2.236068 0 
C -2.236068 0.593012 -2.000462 1.161816 -1.581139 1.581139 
C -1.161816 2.000462 -0.593012 2.236068 0 2.236068 
z
" style="stroke: #1f77b4"/>
    </defs>
    <g clip-path="url(#p87fdeca5e5)">
     <use xlink:href="#m3e361a92b0" x="75.725593" y="201.802553" style="fill: #1f77b4; stroke: #1f77b4"/>
     <use xlink:href="#m3e361a92b0" x="93.746084" y="93.582991" style="fill: #1f77b4; stroke: #1f77b4"/>
     <use xlink:href="#m3e361a92b0" x="98.353248" y="122.891873" style="fill: #1f77b4; stroke: #1f77b4"/>
     <use xlink:href="#m3e361a92b0" x="84.822573" y="255.691273" style="fill: #1f77b4; stroke: #1f77b4"/>
     <use xlink:href="#m3e361a92b0" x="137.333018" y="97.254296" style="fill: #1f77b4; stroke: #1f77b4"/>
     <use xlink:href="#m3e361a92b0" x="126.276845" y="95.698468" style="fill: #1f77b4; stroke: #1f77b4"/>
     <use xlink:href="#m3e361a92b0" x="83.128688" y="108.727126" style="fill: #1f77b4; stroke: #1f77b4"/>
     <use xlink:href="#m3e361a92b0" x="221.532382" y="61.515033" style="fill: #1f77b4; stroke: #1f77b4"/>
     <use xlink:href="#m3e361a92b0" x="235.649794" y="70.469437" style="fill: #1f77b4; stroke: #1f77b4"/>
     <use xlink:href="#m3e361a92b0" x="85.266453" y="134.711685" style="fill: #1f77b4; stroke: #1f77b4"/>
     <use xlink:href="#m3e361a92b0" x="188.302638" y="103.82459" style="fill: #1f77b4; stroke: #1f77b4"/>
     <use xlink:href="#m3e361a92b0" x="184.664867" y="91.920829" style="fill: #1f77b4; stroke: #1f77b4"/>
     <use xlink:href="#m3e361a92b0" x="77.827643" y="143.341492" style="fill: #1f77b4; stroke: #1f77b4"/>
     <use xlink:href="#m3e361a92b0" x="148.78205" y="99.638406" style="fill: #1f77b4; stroke: #1f77b4"/>
     <use xlink:href="#m3e361a92b0" x="102.628777" y="122.740767" style="fill: #1f77b4; stroke: #1f77b4"/>
     <use xlink:href="#m3e361a92b0" x="225.098725" y="72.819968" style="fill: #1f77b4; stroke: #1f77b4"/>
     <use xlink:href="#m3e361a92b0" x="105.735934" y="114.709786" style="fill: #1f77b4; stroke: #1f77b4"/>
     <use xlink:href="#m3e361a92b0" x="79.011322" y="199.575146" style="fill: #1f77b4; stroke: #1f77b4"/>
     <use xlink:href="#m3e361a92b0" x="87.251156" y="171.335196" style="fill: #1f77b4; stroke: #1f77b4"/>
     <use xlink:href="#m3e361a92b0" x="89.65933" y="156.297394" style="fill: #1f77b4; stroke: #1f77b4"/>
     <use xlink:href="#m3e361a92b0" x="101.593058" y="89.766176" style="fill: #1f77b4; stroke: #1f77b4"/>
     <use xlink:href="#m3e361a92b0" x="123.909487" y="225.845127" style="fill: #1f77b4; stroke: #1f77b4"/>
     <use xlink:href="#m3e361a92b0" x="113.445153" y="115.627613" style="fill: #1f77b4; stroke: #1f77b4"/>
     <use xlink:href="#m3e361a92b0" x="317.344045" y="83.917831" style="fill: #1f77b4; stroke: #1f77b4"/>
     <use xlink:href="#m3e361a92b0" x="107.582882" y="108.189861" style="fill: #1f77b4; stroke: #1f77b4"/>
     <use xlink:href="#m3e361a92b0" x="77.450091" y="225.722004" style="fill: #1f77b4; stroke: #1f77b4"/>
     <use xlink:href="#m3e361a92b0" x="74.603139" y="238.806626" style="fill: #1f77b4; stroke: #1f77b4"/>
     <use xlink:href="#m3e361a92b0" x="77.353152" y="161.692422" style="fill: #1f77b4; stroke: #1f77b4"/>
     <use xlink:href="#m3e361a92b0" x="81.541946" y="218.049199" style="fill: #1f77b4; stroke: #1f77b4"/>
     <use xlink:href="#m3e361a92b0" x="237.894702" y="64.425214" style="fill: #1f77b4; stroke: #1f77b4"/>
     <use xlink:href="#m3e361a92b0" x="84.031753" y="118.011723" style="fill: #1f77b4; stroke: #1f77b4"/>
     <use xlink:href="#m3e361a92b0" x="76.230697" y="264.125202" style="fill: #1f77b4; stroke: #1f77b4"/>
     <use xlink:href="#m3e361a92b0" x="77.531724" y="247.442029" style="fill: #1f77b4; stroke: #1f77b4"/>
     <use xlink:href="#m3e361a92b0" x="125.582964" y="77.856819" style="fill: #1f77b4; stroke: #1f77b4"/>
     <use xlink:href="#m3e361a92b0" x="89.725657" y="105.201329" style="fill: #1f77b4; stroke: #1f77b4"/>
     <use xlink:href="#m3e361a92b0" x="101.674691" y="111.346289" style="fill: #1f77b4; stroke: #1f77b4"/>
     <use xlink:href="#m3e361a92b0" x="77.904174" y="184.805976" style="fill: #1f77b4; stroke: #1f77b4"/>
     <use xlink:href="#m3e361a92b0" x="73.832727" y="249.238506" style="fill: #1f77b4; stroke: #1f77b4"/>
     <use xlink:href="#m3e361a92b0" x="89.80729" y="216.000879" style="fill: #1f77b4; stroke: #1f77b4"/>
     <use xlink:href="#m3e361a92b0" x="111.485961" y="73.877706" style="fill: #1f77b4; stroke: #1f77b4"/>
     <use xlink:href="#m3e361a92b0" x="81.251129" y="249.003453" style="fill: #1f77b4; stroke: #1f77b4"/>
     <use xlink:href="#m3e361a92b0" x="126.332967" y="90.236282" style="fill: #1f77b4; stroke: #1f77b4"/>
     <use xlink:href="#m3e361a92b0" x="103.542047" y="79.681279" style="fill: #1f77b4; stroke: #1f77b4"/>
     <use xlink:href="#m3e361a92b0" x="188.77713" y="72.254721" style="fill: #1f77b4; stroke: #1f77b4"/>
     <use xlink:href="#m3e361a92b0" x="158.17495" y="88.825964" style="fill: #1f77b4; stroke: #1f77b4"/>
     <use xlink:href="#m3e361a92b0" x="234.614075" y="78.472435" style="fill: #1f77b4; stroke: #1f77b4"/>
     <use xlink:href="#m3e361a92b0" x="82.006234" y="189.714109" style="fill: #1f77b4; stroke: #1f77b4"/>
     <use xlink:href="#m3e361a92b0" x="94.536904" y="113.993434" style="fill: #1f77b4; stroke: #1f77b4"/>
     <use xlink:href="#m3e361a92b0" x="100.996117" y="98.323228" style="fill: #1f77b4; stroke: #1f77b4"/>
     <use xlink:href="#m3e361a92b0" x="95.960379" y="124.744315" style="fill: #1f77b4; stroke: #1f77b4"/>
     <use xlink:href="#m3e361a92b0" x="99.593049" y="118.683303" style="fill: #1f77b4; stroke: #1f77b4"/>
     <use xlink:href="#m3e361a92b0" x="99.077741" y="241.761579" style="fill: #1f77b4; stroke: #1f77b4"/>
     <use xlink:href="#m3e361a92b0" x="76.123554" y="194.706189" style="fill: #1f77b4; stroke: #1f77b4"/>
     <use xlink:href="#m3e361a92b0" x="129.710534" y="112.611098" style="fill: #1f77b4; stroke: #1f77b4"/>
     <use xlink:href="#m3e361a92b0" x="74.955181" y="216.454196" style="fill: #1f77b4; stroke: #1f77b4"/>
     <use xlink:href="#m3e361a92b0" x="92.016484" y="130.782941" style="fill: #1f77b4; stroke: #1f77b4"/>
     <use xlink:href="#m3e361a92b0" x="210.971109" y="73.659443" style="fill: #1f77b4; stroke: #1f77b4"/>
     <use xlink:href="#m3e361a92b0" x="218.445633" y="65.432585" style="fill: #1f77b4; stroke: #1f77b4"/>
     <use xlink:href="#m3e361a92b0" x="137.465671" y="174.486026" style="fill: #1f77b4; stroke: #1f77b4"/>
     <use xlink:href="#m3e361a92b0" x="75.848043" y="200.392235" style="fill: #1f77b4; stroke: #1f77b4"/>
     <use xlink:href="#m3e361a92b0" x="84.240938" y="106.796332" style="fill: #1f77b4; stroke: #1f77b4"/>
     <use xlink:href="#m3e361a92b0" x="224.006883" y="71.525639" style="fill: #1f77b4; stroke: #1f77b4"/>
     <use xlink:href="#m3e361a92b0" x="77.786827" y="189.865214" style="fill: #1f77b4; stroke: #1f77b4"/>
     <use xlink:href="#m3e361a92b0" x="177.828101" y="69.322154" style="fill: #1f77b4; stroke: #1f77b4"/>
     <use xlink:href="#m3e361a92b0" x="241.751862" y="133.709911" style="fill: #1f77b4; stroke: #1f77b4"/>
     <use xlink:href="#m3e361a92b0" x="116.50129" y="115.179893" style="fill: #1f77b4; stroke: #1f77b4"/>
     <use xlink:href="#m3e361a92b0" x="97.261406" y="129.579693" style="fill: #1f77b4; stroke: #1f77b4"/>
     <use xlink:href="#m3e361a92b0" x="76.965395" y="221.98354" style="fill: #1f77b4; stroke: #1f77b4"/>
     <use xlink:href="#m3e361a92b0" x="75.567429" y="220.802678" style="fill: #1f77b4; stroke: #1f77b4"/>
     <use xlink:href="#m3e361a92b0" x="88.368508" y="154.640829" style="fill: #1f77b4; stroke: #1f77b4"/>
     <use xlink:href="#m3e361a92b0" x="79.200099" y="187.268437" style="fill: #1f77b4; stroke: #1f77b4"/>
     <use xlink:href="#m3e361a92b0" x="88.123609" y="114.390786" style="fill: #1f77b4; stroke: #1f77b4"/>
     <use xlink:href="#m3e361a92b0" x="225.261991" y="59.102941" style="fill: #1f77b4; stroke: #1f77b4"/>
     <use xlink:href="#m3e361a92b0" x="141.69018" y="106.678806" style="fill: #1f77b4; stroke: #1f77b4"/>
     <use xlink:href="#m3e361a92b0" x="230.976303" y="62.690299" style="fill: #1f77b4; stroke: #1f77b4"/>
     <use xlink:href="#m3e361a92b0" x="80.751126" y="161.138369" style="fill: #1f77b4; stroke: #1f77b4"/>
     <use xlink:href="#m3e361a92b0" x="86.189927" y="132.260417" style="fill: #1f77b4; stroke: #1f77b4"/>
     <use xlink:href="#m3e361a92b0" x="116.220676" y="119.265339" style="fill: #1f77b4; stroke: #1f77b4"/>
     <use xlink:href="#m3e361a92b0" x="92.50118" y="112.359255" style="fill: #1f77b4; stroke: #1f77b4"/>
     <use xlink:href="#m3e361a92b0" x="229.624256" y="79.815595" style="fill: #1f77b4; stroke: #1f77b4"/>
     <use xlink:href="#m3e361a92b0" x="188.843457" y="68.118906" style="fill: #1f77b4; stroke: #1f77b4"/>
     <use xlink:href="#m3e361a92b0" x="210.914987" y="62.634334" style="fill: #1f77b4; stroke: #1f77b4"/>
     <use xlink:href="#m3e361a92b0" x="107.720637" y="114.407575" style="fill: #1f77b4; stroke: #1f77b4"/>
     <use xlink:href="#m3e361a92b0" x="218.052774" y="53.568" style="fill: #1f77b4; stroke: #1f77b4"/>
     <use xlink:href="#m3e361a92b0" x="91.036888" y="107.43993" style="fill: #1f77b4; stroke: #1f77b4"/>
     <use xlink:href="#m3e361a92b0" x="99.720601" y="153.392809" style="fill: #1f77b4; stroke: #1f77b4"/>
     <use xlink:href="#m3e361a92b0" x="79.067445" y="212.989961" style="fill: #1f77b4; stroke: #1f77b4"/>
     <use xlink:href="#m3e361a92b0" x="90.205251" y="147.074359" style="fill: #1f77b4; stroke: #1f77b4"/>
     <use xlink:href="#m3e361a92b0" x="80.960311" y="143.554159" style="fill: #1f77b4; stroke: #1f77b4"/>
     <use xlink:href="#m3e361a92b0" x="159.052505" y="82.871285" style="fill: #1f77b4; stroke: #1f77b4"/>
     <use xlink:href="#m3e361a92b0" x="258.042753" y="99.554458" style="fill: #1f77b4; stroke: #1f77b4"/>
     <use xlink:href="#m3e361a92b0" x="80.133776" y="138.17592" style="fill: #1f77b4; stroke: #1f77b4"/>
     <use xlink:href="#m3e361a92b0" x="80.087858" y="163.600829" style="fill: #1f77b4; stroke: #1f77b4"/>
     <use xlink:href="#m3e361a92b0" x="116.470677" y="116.192859" style="fill: #1f77b4; stroke: #1f77b4"/>
     <use xlink:href="#m3e361a92b0" x="101.909386" y="92.413322" style="fill: #1f77b4; stroke: #1f77b4"/>
     <use xlink:href="#m3e361a92b0" x="78.393973" y="244.324777" style="fill: #1f77b4; stroke: #1f77b4"/>
     <use xlink:href="#m3e361a92b0" x="74.990896" y="215.452422" style="fill: #1f77b4; stroke: #1f77b4"/>
     <use xlink:href="#m3e361a92b0" x="118.970689" y="106.611648" style="fill: #1f77b4; stroke: #1f77b4"/>
     <use xlink:href="#m3e361a92b0" x="121.480904" y="104.887925" style="fill: #1f77b4; stroke: #1f77b4"/>
     <use xlink:href="#m3e361a92b0" x="398.487273" y="73.323653" style="fill: #1f77b4; stroke: #1f77b4"/>
     <use xlink:href="#m3e361a92b0" x="187.200592" y="74.403778" style="fill: #1f77b4; stroke: #1f77b4"/>
     <use xlink:href="#m3e361a92b0" x="107.929822" y="98.933247" style="fill: #1f77b4; stroke: #1f77b4"/>
     <use xlink:href="#m3e361a92b0" x="77.582744" y="181.532022" style="fill: #1f77b4; stroke: #1f77b4"/>
     <use xlink:href="#m3e361a92b0" x="75.980696" y="251.180492" style="fill: #1f77b4; stroke: #1f77b4"/>
     <use xlink:href="#m3e361a92b0" x="124.184998" y="101.362129" style="fill: #1f77b4; stroke: #1f77b4"/>
     <use xlink:href="#m3e361a92b0" x="89.858311" y="121.123378" style="fill: #1f77b4; stroke: #1f77b4"/>
     <use xlink:href="#m3e361a92b0" x="76.700087" y="234.273459" style="fill: #1f77b4; stroke: #1f77b4"/>
     <use xlink:href="#m3e361a92b0" x="175.792377" y="75.875658" style="fill: #1f77b4; stroke: #1f77b4"/>
     <use xlink:href="#m3e361a92b0" x="80.200103" y="174.569974" style="fill: #1f77b4; stroke: #1f77b4"/>
     <use xlink:href="#m3e361a92b0" x="114.639036" y="110.361304" style="fill: #1f77b4; stroke: #1f77b4"/>
     <use xlink:href="#m3e361a92b0" x="127.924811" y="92.57562" style="fill: #1f77b4; stroke: #1f77b4"/>
     <use xlink:href="#m3e361a92b0" x="100.557339" y="132.198856" style="fill: #1f77b4; stroke: #1f77b4"/>
     <use xlink:href="#m3e361a92b0" x="80.975617" y="133.838631" style="fill: #1f77b4; stroke: #1f77b4"/>
     <use xlink:href="#m3e361a92b0" x="82.633788" y="156.957781" style="fill: #1f77b4; stroke: #1f77b4"/>
     <use xlink:href="#m3e361a92b0" x="103.899191" y="94.002728" style="fill: #1f77b4; stroke: #1f77b4"/>
     <use xlink:href="#m3e361a92b0" x="88.021568" y="127.050074" style="fill: #1f77b4; stroke: #1f77b4"/>
     <use xlink:href="#m3e361a92b0" x="75.108243" y="243.166301" style="fill: #1f77b4; stroke: #1f77b4"/>
     <use xlink:href="#m3e361a92b0" x="77.618459" y="161.451773" style="fill: #1f77b4; stroke: #1f77b4"/>
     <use xlink:href="#m3e361a92b0" x="92.863427" y="200.067638" style="fill: #1f77b4; stroke: #1f77b4"/>
     <use xlink:href="#m3e361a92b0" x="77.7205" y="161.55251" style="fill: #1f77b4; stroke: #1f77b4"/>
     <use xlink:href="#m3e361a92b0" x="240.711041" y="70.973122" style="fill: #1f77b4; stroke: #1f77b4"/>
     <use xlink:href="#m3e361a92b0" x="184.052619" y="67.27943" style="fill: #1f77b4; stroke: #1f77b4"/>
     <use xlink:href="#m3e361a92b0" x="85.047064" y="118.867988" style="fill: #1f77b4; stroke: #1f77b4"/>
     <use xlink:href="#m3e361a92b0" x="75.286816" y="225.145564" style="fill: #1f77b4; stroke: #1f77b4"/>
     <use xlink:href="#m3e361a92b0" x="80.603166" y="247.884152" style="fill: #1f77b4; stroke: #1f77b4"/>
     <use xlink:href="#m3e361a92b0" x="292.619442" y="68.062941" style="fill: #1f77b4; stroke: #1f77b4"/>
     <use xlink:href="#m3e361a92b0" x="170.322964" y="105.117382" style="fill: #1f77b4; stroke: #1f77b4"/>
     <use xlink:href="#m3e361a92b0" x="82.98583" y="151.484402" style="fill: #1f77b4; stroke: #1f77b4"/>
     <use xlink:href="#m3e361a92b0" x="110.12371" y="88.579718" style="fill: #1f77b4; stroke: #1f77b4"/>
     <use xlink:href="#m3e361a92b0" x="81.633783" y="180.054546" style="fill: #1f77b4; stroke: #1f77b4"/>
     <use xlink:href="#m3e361a92b0" x="92.276689" y="116.679755" style="fill: #1f77b4; stroke: #1f77b4"/>
     <use xlink:href="#m3e361a92b0" x="101.888978" y="114.25647" style="fill: #1f77b4; stroke: #1f77b4"/>
     <use xlink:href="#m3e361a92b0" x="85.598087" y="135.142616" style="fill: #1f77b4; stroke: #1f77b4"/>
     <use xlink:href="#m3e361a92b0" x="131.935034" y="95.205976" style="fill: #1f77b4; stroke: #1f77b4"/>
     <use xlink:href="#m3e361a92b0" x="172.3893" y="78.808225" style="fill: #1f77b4; stroke: #1f77b4"/>
     <use xlink:href="#m3e361a92b0" x="380.476986" y="79.703665" style="fill: #1f77b4; stroke: #1f77b4"/>
     <use xlink:href="#m3e361a92b0" x="108.511457" y="114.457944" style="fill: #1f77b4; stroke: #1f77b4"/>
     <use xlink:href="#m3e361a92b0" x="116.067614" y="142.94414" style="fill: #1f77b4; stroke: #1f77b4"/>
     <use xlink:href="#m3e361a92b0" x="75.934778" y="242.212097" style="fill: #1f77b4; stroke: #1f77b4"/>
     <use xlink:href="#m3e361a92b0" x="116.608433" y="108.939793" style="fill: #1f77b4; stroke: #1f77b4"/>
     <use xlink:href="#m3e361a92b0" x="102.409389" y="113.730399" style="fill: #1f77b4; stroke: #1f77b4"/>
     <use xlink:href="#m3e361a92b0" x="93.210367" y="120.759605" style="fill: #1f77b4; stroke: #1f77b4"/>
     <use xlink:href="#m3e361a92b0" x="79.077649" y="154.38339" style="fill: #1f77b4; stroke: #1f77b4"/>
     <use xlink:href="#m3e361a92b0" x="174.389309" y="103.651098" style="fill: #1f77b4; stroke: #1f77b4"/>
     <use xlink:href="#m3e361a92b0" x="80.052143" y="185.270486" style="fill: #1f77b4; stroke: #1f77b4"/>
     <use xlink:href="#m3e361a92b0" x="106.052262" y="105.492347" style="fill: #1f77b4; stroke: #1f77b4"/>
     <use xlink:href="#m3e361a92b0" x="150.047361" y="107.176894" style="fill: #1f77b4; stroke: #1f77b4"/>
     <use xlink:href="#m3e361a92b0" x="74.980692" y="295.488" style="fill: #1f77b4; stroke: #1f77b4"/>
     <use xlink:href="#m3e361a92b0" x="260.272355" y="70.413472" style="fill: #1f77b4; stroke: #1f77b4"/>
     <use xlink:href="#m3e361a92b0" x="137.083016" y="99.235458" style="fill: #1f77b4; stroke: #1f77b4"/>
     <use xlink:href="#m3e361a92b0" x="171.317867" y="82.893671" style="fill: #1f77b4; stroke: #1f77b4"/>
     <use xlink:href="#m3e361a92b0" x="81.536844" y="157.338344" style="fill: #1f77b4; stroke: #1f77b4"/>
     <use xlink:href="#m3e361a92b0" x="76.837843" y="223.970299" style="fill: #1f77b4; stroke: #1f77b4"/>
     <use xlink:href="#m3e361a92b0" x="110.373711" y="196.043753" style="fill: #1f77b4; stroke: #1f77b4"/>
     <use xlink:href="#m3e361a92b0" x="81.950111" y="233.226913" style="fill: #1f77b4; stroke: #1f77b4"/>
     <use xlink:href="#m3e361a92b0" x="191.782246" y="64.816969" style="fill: #1f77b4; stroke: #1f77b4"/>
     <use xlink:href="#m3e361a92b0" x="87.633811" y="111.05527" style="fill: #1f77b4; stroke: #1f77b4"/>
     <use xlink:href="#m3e361a92b0" x="81.904193" y="184.363853" style="fill: #1f77b4; stroke: #1f77b4"/>
     <use xlink:href="#m3e361a92b0" x="101.307343" y="129.115183" style="fill: #1f77b4; stroke: #1f77b4"/>
     <use xlink:href="#m3e361a92b0" x="92.858324" y="236.355358" style="fill: #1f77b4; stroke: #1f77b4"/>
     <use xlink:href="#m3e361a92b0" x="218.466042" y="62.018718" style="fill: #1f77b4; stroke: #1f77b4"/>
     <use xlink:href="#m3e361a92b0" x="247.782502" y="61.179243" style="fill: #1f77b4; stroke: #1f77b4"/>
     <use xlink:href="#m3e361a92b0" x="92.419547" y="98.530299" style="fill: #1f77b4; stroke: #1f77b4"/>
     <use xlink:href="#m3e361a92b0" x="192.368983" y="83.397357" style="fill: #1f77b4; stroke: #1f77b4"/>
     <use xlink:href="#m3e361a92b0" x="77.450091" y="153.073809" style="fill: #1f77b4; stroke: #1f77b4"/>
     <use xlink:href="#m3e361a92b0" x="76.55723" y="228.962379" style="fill: #1f77b4; stroke: #1f77b4"/>
     <use xlink:href="#m3e361a92b0" x="100.802238" y="111.933921" style="fill: #1f77b4; stroke: #1f77b4"/>
     <use xlink:href="#m3e361a92b0" x="86.337886" y="176.030661" style="fill: #1f77b4; stroke: #1f77b4"/>
     <use xlink:href="#m3e361a92b0" x="76.883762" y="208.954883" style="fill: #1f77b4; stroke: #1f77b4"/>
     <use xlink:href="#m3e361a92b0" x="97.27161" y="112.555133" style="fill: #1f77b4; stroke: #1f77b4"/>
     <use xlink:href="#m3e361a92b0" x="125.89419" y="125.298369" style="fill: #1f77b4; stroke: #1f77b4"/>
     <use xlink:href="#m3e361a92b0" x="100.302236" y="99.408949" style="fill: #1f77b4; stroke: #1f77b4"/>
     <use xlink:href="#m3e361a92b0" x="107.052267" y="117.032335" style="fill: #1f77b4; stroke: #1f77b4"/>
     <use xlink:href="#m3e361a92b0" x="89.123614" y="151.087051" style="fill: #1f77b4; stroke: #1f77b4"/>
     <use xlink:href="#m3e361a92b0" x="76.837843" y="239.506189" style="fill: #1f77b4; stroke: #1f77b4"/>
     <use xlink:href="#m3e361a92b0" x="91.220562" y="129.45657" style="fill: #1f77b4; stroke: #1f77b4"/>
     <use xlink:href="#m3e361a92b0" x="225.466074" y="93.790061" style="fill: #1f77b4; stroke: #1f77b4"/>
     <use xlink:href="#m3e361a92b0" x="218.48645" y="72.092422" style="fill: #1f77b4; stroke: #1f77b4"/>
     <use xlink:href="#m3e361a92b0" x="275.190791" y="79.032085" style="fill: #1f77b4; stroke: #1f77b4"/>
     <use xlink:href="#m3e361a92b0" x="118.730892" y="90.353809" style="fill: #1f77b4; stroke: #1f77b4"/>
     <use xlink:href="#m3e361a92b0" x="80.684799" y="133.883403" style="fill: #1f77b4; stroke: #1f77b4"/>
     <use xlink:href="#m3e361a92b0" x="91.53689" y="131.426538" style="fill: #1f77b4; stroke: #1f77b4"/>
     <use xlink:href="#m3e361a92b0" x="120.475798" y="103.477606" style="fill: #1f77b4; stroke: #1f77b4"/>
     <use xlink:href="#m3e361a92b0" x="80.38888" y="95.950311" style="fill: #1f77b4; stroke: #1f77b4"/>
     <use xlink:href="#m3e361a92b0" x="111.047183" y="111.889149" style="fill: #1f77b4; stroke: #1f77b4"/>
     <use xlink:href="#m3e361a92b0" x="83.654201" y="170.792335" style="fill: #1f77b4; stroke: #1f77b4"/>
     <use xlink:href="#m3e361a92b0" x="77.623561" y="274.898468" style="fill: #1f77b4; stroke: #1f77b4"/>
     <use xlink:href="#m3e361a92b0" x="76.143962" y="262.731673" style="fill: #1f77b4; stroke: #1f77b4"/>
    </g>
   </g>
   <g id="matplotlib.axis_1">
    <g id="xtick_1">
     <g id="line2d_1">
      <defs>
       <path id="m25cb5e7fac" d="M 0 0 
L 0 3.5 
" style="stroke: #000000; stroke-width: 0.8"/>
      </defs>
      <g>
       <use xlink:href="#m25cb5e7fac" x="72.342925" y="307.584" style="stroke: #000000; stroke-width: 0.8"/>
      </g>
     </g>
     <g id="text_1">
      <!-- 0 -->
      <g transform="translate(69.161675 322.182437)scale(0.1 -0.1)">
       <defs>
        <path id="DejaVuSans-30" d="M 2034 4250 
Q 1547 4250 1301 3770 
Q 1056 3291 1056 2328 
Q 1056 1369 1301 889 
Q 1547 409 2034 409 
Q 2525 409 2770 889 
Q 3016 1369 3016 2328 
Q 3016 3291 2770 3770 
Q 2525 4250 2034 4250 
z
M 2034 4750 
Q 2819 4750 3233 4129 
Q 3647 3509 3647 2328 
Q 3647 1150 3233 529 
Q 2819 -91 2034 -91 
Q 1250 -91 836 529 
Q 422 1150 422 2328 
Q 422 3509 836 4129 
Q 1250 4750 2034 4750 
z
" transform="scale(0.015625)"/>
       </defs>
       <use xlink:href="#DejaVuSans-30"/>
      </g>
     </g>
    </g>
    <g id="xtick_2">
     <g id="line2d_2">
      <g>
       <use xlink:href="#m25cb5e7fac" x="123.363566" y="307.584" style="stroke: #000000; stroke-width: 0.8"/>
      </g>
     </g>
     <g id="text_2">
      <!-- 10000 -->
      <g transform="translate(107.457316 322.182437)scale(0.1 -0.1)">
       <defs>
        <path id="DejaVuSans-31" d="M 794 531 
L 1825 531 
L 1825 4091 
L 703 3866 
L 703 4441 
L 1819 4666 
L 2450 4666 
L 2450 531 
L 3481 531 
L 3481 0 
L 794 0 
L 794 531 
z
" transform="scale(0.015625)"/>
       </defs>
       <use xlink:href="#DejaVuSans-31"/>
       <use xlink:href="#DejaVuSans-30" x="63.623047"/>
       <use xlink:href="#DejaVuSans-30" x="127.246094"/>
       <use xlink:href="#DejaVuSans-30" x="190.869141"/>
       <use xlink:href="#DejaVuSans-30" x="254.492188"/>
      </g>
     </g>
    </g>
    <g id="xtick_3">
     <g id="line2d_3">
      <g>
       <use xlink:href="#m25cb5e7fac" x="174.384207" y="307.584" style="stroke: #000000; stroke-width: 0.8"/>
      </g>
     </g>
     <g id="text_3">
      <!-- 20000 -->
      <g transform="translate(158.477957 322.182437)scale(0.1 -0.1)">
       <defs>
        <path id="DejaVuSans-32" d="M 1228 531 
L 3431 531 
L 3431 0 
L 469 0 
L 469 531 
Q 828 903 1448 1529 
Q 2069 2156 2228 2338 
Q 2531 2678 2651 2914 
Q 2772 3150 2772 3378 
Q 2772 3750 2511 3984 
Q 2250 4219 1831 4219 
Q 1534 4219 1204 4116 
Q 875 4013 500 3803 
L 500 4441 
Q 881 4594 1212 4672 
Q 1544 4750 1819 4750 
Q 2544 4750 2975 4387 
Q 3406 4025 3406 3419 
Q 3406 3131 3298 2873 
Q 3191 2616 2906 2266 
Q 2828 2175 2409 1742 
Q 1991 1309 1228 531 
z
" transform="scale(0.015625)"/>
       </defs>
       <use xlink:href="#DejaVuSans-32"/>
       <use xlink:href="#DejaVuSans-30" x="63.623047"/>
       <use xlink:href="#DejaVuSans-30" x="127.246094"/>
       <use xlink:href="#DejaVuSans-30" x="190.869141"/>
       <use xlink:href="#DejaVuSans-30" x="254.492188"/>
      </g>
     </g>
    </g>
    <g id="xtick_4">
     <g id="line2d_4">
      <g>
       <use xlink:href="#m25cb5e7fac" x="225.404849" y="307.584" style="stroke: #000000; stroke-width: 0.8"/>
      </g>
     </g>
     <g id="text_4">
      <!-- 30000 -->
      <g transform="translate(209.498599 322.182437)scale(0.1 -0.1)">
       <defs>
        <path id="DejaVuSans-33" d="M 2597 2516 
Q 3050 2419 3304 2112 
Q 3559 1806 3559 1356 
Q 3559 666 3084 287 
Q 2609 -91 1734 -91 
Q 1441 -91 1130 -33 
Q 819 25 488 141 
L 488 750 
Q 750 597 1062 519 
Q 1375 441 1716 441 
Q 2309 441 2620 675 
Q 2931 909 2931 1356 
Q 2931 1769 2642 2001 
Q 2353 2234 1838 2234 
L 1294 2234 
L 1294 2753 
L 1863 2753 
Q 2328 2753 2575 2939 
Q 2822 3125 2822 3475 
Q 2822 3834 2567 4026 
Q 2313 4219 1838 4219 
Q 1578 4219 1281 4162 
Q 984 4106 628 3988 
L 628 4550 
Q 988 4650 1302 4700 
Q 1616 4750 1894 4750 
Q 2613 4750 3031 4423 
Q 3450 4097 3450 3541 
Q 3450 3153 3228 2886 
Q 3006 2619 2597 2516 
z
" transform="scale(0.015625)"/>
       </defs>
       <use xlink:href="#DejaVuSans-33"/>
       <use xlink:href="#DejaVuSans-30" x="63.623047"/>
       <use xlink:href="#DejaVuSans-30" x="127.246094"/>
       <use xlink:href="#DejaVuSans-30" x="190.869141"/>
       <use xlink:href="#DejaVuSans-30" x="254.492188"/>
      </g>
     </g>
    </g>
    <g id="xtick_5">
     <g id="line2d_5">
      <g>
       <use xlink:href="#m25cb5e7fac" x="276.42549" y="307.584" style="stroke: #000000; stroke-width: 0.8"/>
      </g>
     </g>
     <g id="text_5">
      <!-- 40000 -->
      <g transform="translate(260.51924 322.182437)scale(0.1 -0.1)">
       <defs>
        <path id="DejaVuSans-34" d="M 2419 4116 
L 825 1625 
L 2419 1625 
L 2419 4116 
z
M 2253 4666 
L 3047 4666 
L 3047 1625 
L 3713 1625 
L 3713 1100 
L 3047 1100 
L 3047 0 
L 2419 0 
L 2419 1100 
L 313 1100 
L 313 1709 
L 2253 4666 
z
" transform="scale(0.015625)"/>
       </defs>
       <use xlink:href="#DejaVuSans-34"/>
       <use xlink:href="#DejaVuSans-30" x="63.623047"/>
       <use xlink:href="#DejaVuSans-30" x="127.246094"/>
       <use xlink:href="#DejaVuSans-30" x="190.869141"/>
       <use xlink:href="#DejaVuSans-30" x="254.492188"/>
      </g>
     </g>
    </g>
    <g id="xtick_6">
     <g id="line2d_6">
      <g>
       <use xlink:href="#m25cb5e7fac" x="327.446132" y="307.584" style="stroke: #000000; stroke-width: 0.8"/>
      </g>
     </g>
     <g id="text_6">
      <!-- 50000 -->
      <g transform="translate(311.539882 322.182437)scale(0.1 -0.1)">
       <defs>
        <path id="DejaVuSans-35" d="M 691 4666 
L 3169 4666 
L 3169 4134 
L 1269 4134 
L 1269 2991 
Q 1406 3038 1543 3061 
Q 1681 3084 1819 3084 
Q 2600 3084 3056 2656 
Q 3513 2228 3513 1497 
Q 3513 744 3044 326 
Q 2575 -91 1722 -91 
Q 1428 -91 1123 -41 
Q 819 9 494 109 
L 494 744 
Q 775 591 1075 516 
Q 1375 441 1709 441 
Q 2250 441 2565 725 
Q 2881 1009 2881 1497 
Q 2881 1984 2565 2268 
Q 2250 2553 1709 2553 
Q 1456 2553 1204 2497 
Q 953 2441 691 2322 
L 691 4666 
z
" transform="scale(0.015625)"/>
       </defs>
       <use xlink:href="#DejaVuSans-35"/>
       <use xlink:href="#DejaVuSans-30" x="63.623047"/>
       <use xlink:href="#DejaVuSans-30" x="127.246094"/>
       <use xlink:href="#DejaVuSans-30" x="190.869141"/>
       <use xlink:href="#DejaVuSans-30" x="254.492188"/>
      </g>
     </g>
    </g>
    <g id="xtick_7">
     <g id="line2d_7">
      <g>
       <use xlink:href="#m25cb5e7fac" x="378.466773" y="307.584" style="stroke: #000000; stroke-width: 0.8"/>
      </g>
     </g>
     <g id="text_7">
      <!-- 60000 -->
      <g transform="translate(362.560523 322.182437)scale(0.1 -0.1)">
       <defs>
        <path id="DejaVuSans-36" d="M 2113 2584 
Q 1688 2584 1439 2293 
Q 1191 2003 1191 1497 
Q 1191 994 1439 701 
Q 1688 409 2113 409 
Q 2538 409 2786 701 
Q 3034 994 3034 1497 
Q 3034 2003 2786 2293 
Q 2538 2584 2113 2584 
z
M 3366 4563 
L 3366 3988 
Q 3128 4100 2886 4159 
Q 2644 4219 2406 4219 
Q 1781 4219 1451 3797 
Q 1122 3375 1075 2522 
Q 1259 2794 1537 2939 
Q 1816 3084 2150 3084 
Q 2853 3084 3261 2657 
Q 3669 2231 3669 1497 
Q 3669 778 3244 343 
Q 2819 -91 2113 -91 
Q 1303 -91 875 529 
Q 447 1150 447 2328 
Q 447 3434 972 4092 
Q 1497 4750 2381 4750 
Q 2619 4750 2861 4703 
Q 3103 4656 3366 4563 
z
" transform="scale(0.015625)"/>
       </defs>
       <use xlink:href="#DejaVuSans-36"/>
       <use xlink:href="#DejaVuSans-30" x="63.623047"/>
       <use xlink:href="#DejaVuSans-30" x="127.246094"/>
       <use xlink:href="#DejaVuSans-30" x="190.869141"/>
       <use xlink:href="#DejaVuSans-30" x="254.492188"/>
      </g>
     </g>
    </g>
    <g id="text_8">
     <!-- gdp_per_capita -->
     <g transform="translate(197.930312 335.860562)scale(0.1 -0.1)">
      <defs>
       <path id="DejaVuSans-67" d="M 2906 1791 
Q 2906 2416 2648 2759 
Q 2391 3103 1925 3103 
Q 1463 3103 1205 2759 
Q 947 2416 947 1791 
Q 947 1169 1205 825 
Q 1463 481 1925 481 
Q 2391 481 2648 825 
Q 2906 1169 2906 1791 
z
M 3481 434 
Q 3481 -459 3084 -895 
Q 2688 -1331 1869 -1331 
Q 1566 -1331 1297 -1286 
Q 1028 -1241 775 -1147 
L 775 -588 
Q 1028 -725 1275 -790 
Q 1522 -856 1778 -856 
Q 2344 -856 2625 -561 
Q 2906 -266 2906 331 
L 2906 616 
Q 2728 306 2450 153 
Q 2172 0 1784 0 
Q 1141 0 747 490 
Q 353 981 353 1791 
Q 353 2603 747 3093 
Q 1141 3584 1784 3584 
Q 2172 3584 2450 3431 
Q 2728 3278 2906 2969 
L 2906 3500 
L 3481 3500 
L 3481 434 
z
" transform="scale(0.015625)"/>
       <path id="DejaVuSans-64" d="M 2906 2969 
L 2906 4863 
L 3481 4863 
L 3481 0 
L 2906 0 
L 2906 525 
Q 2725 213 2448 61 
Q 2172 -91 1784 -91 
Q 1150 -91 751 415 
Q 353 922 353 1747 
Q 353 2572 751 3078 
Q 1150 3584 1784 3584 
Q 2172 3584 2448 3432 
Q 2725 3281 2906 2969 
z
M 947 1747 
Q 947 1113 1208 752 
Q 1469 391 1925 391 
Q 2381 391 2643 752 
Q 2906 1113 2906 1747 
Q 2906 2381 2643 2742 
Q 2381 3103 1925 3103 
Q 1469 3103 1208 2742 
Q 947 2381 947 1747 
z
" transform="scale(0.015625)"/>
       <path id="DejaVuSans-70" d="M 1159 525 
L 1159 -1331 
L 581 -1331 
L 581 3500 
L 1159 3500 
L 1159 2969 
Q 1341 3281 1617 3432 
Q 1894 3584 2278 3584 
Q 2916 3584 3314 3078 
Q 3713 2572 3713 1747 
Q 3713 922 3314 415 
Q 2916 -91 2278 -91 
Q 1894 -91 1617 61 
Q 1341 213 1159 525 
z
M 3116 1747 
Q 3116 2381 2855 2742 
Q 2594 3103 2138 3103 
Q 1681 3103 1420 2742 
Q 1159 2381 1159 1747 
Q 1159 1113 1420 752 
Q 1681 391 2138 391 
Q 2594 391 2855 752 
Q 3116 1113 3116 1747 
z
" transform="scale(0.015625)"/>
       <path id="DejaVuSans-5f" d="M 3263 -1063 
L 3263 -1509 
L -63 -1509 
L -63 -1063 
L 3263 -1063 
z
" transform="scale(0.015625)"/>
       <path id="DejaVuSans-65" d="M 3597 1894 
L 3597 1613 
L 953 1613 
Q 991 1019 1311 708 
Q 1631 397 2203 397 
Q 2534 397 2845 478 
Q 3156 559 3463 722 
L 3463 178 
Q 3153 47 2828 -22 
Q 2503 -91 2169 -91 
Q 1331 -91 842 396 
Q 353 884 353 1716 
Q 353 2575 817 3079 
Q 1281 3584 2069 3584 
Q 2775 3584 3186 3129 
Q 3597 2675 3597 1894 
z
M 3022 2063 
Q 3016 2534 2758 2815 
Q 2500 3097 2075 3097 
Q 1594 3097 1305 2825 
Q 1016 2553 972 2059 
L 3022 2063 
z
" transform="scale(0.015625)"/>
       <path id="DejaVuSans-72" d="M 2631 2963 
Q 2534 3019 2420 3045 
Q 2306 3072 2169 3072 
Q 1681 3072 1420 2755 
Q 1159 2438 1159 1844 
L 1159 0 
L 581 0 
L 581 3500 
L 1159 3500 
L 1159 2956 
Q 1341 3275 1631 3429 
Q 1922 3584 2338 3584 
Q 2397 3584 2469 3576 
Q 2541 3569 2628 3553 
L 2631 2963 
z
" transform="scale(0.015625)"/>
       <path id="DejaVuSans-63" d="M 3122 3366 
L 3122 2828 
Q 2878 2963 2633 3030 
Q 2388 3097 2138 3097 
Q 1578 3097 1268 2742 
Q 959 2388 959 1747 
Q 959 1106 1268 751 
Q 1578 397 2138 397 
Q 2388 397 2633 464 
Q 2878 531 3122 666 
L 3122 134 
Q 2881 22 2623 -34 
Q 2366 -91 2075 -91 
Q 1284 -91 818 406 
Q 353 903 353 1747 
Q 353 2603 823 3093 
Q 1294 3584 2113 3584 
Q 2378 3584 2631 3529 
Q 2884 3475 3122 3366 
z
" transform="scale(0.015625)"/>
       <path id="DejaVuSans-61" d="M 2194 1759 
Q 1497 1759 1228 1600 
Q 959 1441 959 1056 
Q 959 750 1161 570 
Q 1363 391 1709 391 
Q 2188 391 2477 730 
Q 2766 1069 2766 1631 
L 2766 1759 
L 2194 1759 
z
M 3341 1997 
L 3341 0 
L 2766 0 
L 2766 531 
Q 2569 213 2275 61 
Q 1981 -91 1556 -91 
Q 1019 -91 701 211 
Q 384 513 384 1019 
Q 384 1609 779 1909 
Q 1175 2209 1959 2209 
L 2766 2209 
L 2766 2266 
Q 2766 2663 2505 2880 
Q 2244 3097 1772 3097 
Q 1472 3097 1187 3025 
Q 903 2953 641 2809 
L 641 3341 
Q 956 3463 1253 3523 
Q 1550 3584 1831 3584 
Q 2591 3584 2966 3190 
Q 3341 2797 3341 1997 
z
" transform="scale(0.015625)"/>
       <path id="DejaVuSans-69" d="M 603 3500 
L 1178 3500 
L 1178 0 
L 603 0 
L 603 3500 
z
M 603 4863 
L 1178 4863 
L 1178 4134 
L 603 4134 
L 603 4863 
z
" transform="scale(0.015625)"/>
       <path id="DejaVuSans-74" d="M 1172 4494 
L 1172 3500 
L 2356 3500 
L 2356 3053 
L 1172 3053 
L 1172 1153 
Q 1172 725 1289 603 
Q 1406 481 1766 481 
L 2356 481 
L 2356 0 
L 1766 0 
Q 1100 0 847 248 
Q 594 497 594 1153 
L 594 3053 
L 172 3053 
L 172 3500 
L 594 3500 
L 594 4494 
L 1172 4494 
z
" transform="scale(0.015625)"/>
      </defs>
      <use xlink:href="#DejaVuSans-67"/>
      <use xlink:href="#DejaVuSans-64" x="63.476562"/>
      <use xlink:href="#DejaVuSans-70" x="126.953125"/>
      <use xlink:href="#DejaVuSans-5f" x="190.429688"/>
      <use xlink:href="#DejaVuSans-70" x="240.429688"/>
      <use xlink:href="#DejaVuSans-65" x="303.90625"/>
      <use xlink:href="#DejaVuSans-72" x="365.429688"/>
      <use xlink:href="#DejaVuSans-5f" x="406.542969"/>
      <use xlink:href="#DejaVuSans-63" x="456.542969"/>
      <use xlink:href="#DejaVuSans-61" x="511.523438"/>
      <use xlink:href="#DejaVuSans-70" x="572.802734"/>
      <use xlink:href="#DejaVuSans-69" x="636.279297"/>
      <use xlink:href="#DejaVuSans-74" x="664.0625"/>
      <use xlink:href="#DejaVuSans-61" x="703.271484"/>
     </g>
    </g>
   </g>
   <g id="matplotlib.axis_2">
    <g id="ytick_1">
     <g id="line2d_8">
      <defs>
       <path id="md9093628ba" d="M 0 0 
L -3.5 0 
" style="stroke: #000000; stroke-width: 0.8"/>
      </defs>
      <g>
       <use xlink:href="#md9093628ba" x="57.6" y="284.983365" style="stroke: #000000; stroke-width: 0.8"/>
      </g>
     </g>
     <g id="text_9">
      <!-- 40 -->
      <g transform="translate(37.875 288.782584)scale(0.1 -0.1)">
       <use xlink:href="#DejaVuSans-34"/>
       <use xlink:href="#DejaVuSans-30" x="63.623047"/>
      </g>
     </g>
    </g>
    <g id="ytick_2">
     <g id="line2d_9">
      <g>
       <use xlink:href="#md9093628ba" x="57.6" y="229.018344" style="stroke: #000000; stroke-width: 0.8"/>
      </g>
     </g>
     <g id="text_10">
      <!-- 50 -->
      <g transform="translate(37.875 232.817562)scale(0.1 -0.1)">
       <use xlink:href="#DejaVuSans-35"/>
       <use xlink:href="#DejaVuSans-30" x="63.623047"/>
      </g>
     </g>
    </g>
    <g id="ytick_3">
     <g id="line2d_10">
      <g>
       <use xlink:href="#md9093628ba" x="57.6" y="173.053322" style="stroke: #000000; stroke-width: 0.8"/>
      </g>
     </g>
     <g id="text_11">
      <!-- 60 -->
      <g transform="translate(37.875 176.85254)scale(0.1 -0.1)">
       <use xlink:href="#DejaVuSans-36"/>
       <use xlink:href="#DejaVuSans-30" x="63.623047"/>
      </g>
     </g>
    </g>
    <g id="ytick_4">
     <g id="line2d_11">
      <g>
       <use xlink:href="#md9093628ba" x="57.6" y="117.0883" style="stroke: #000000; stroke-width: 0.8"/>
      </g>
     </g>
     <g id="text_12">
      <!-- 70 -->
      <g transform="translate(37.875 120.887519)scale(0.1 -0.1)">
       <defs>
        <path id="DejaVuSans-37" d="M 525 4666 
L 3525 4666 
L 3525 4397 
L 1831 0 
L 1172 0 
L 2766 4134 
L 525 4134 
L 525 4666 
z
" transform="scale(0.015625)"/>
       </defs>
       <use xlink:href="#DejaVuSans-37"/>
       <use xlink:href="#DejaVuSans-30" x="63.623047"/>
      </g>
     </g>
    </g>
    <g id="ytick_5">
     <g id="line2d_12">
      <g>
       <use xlink:href="#md9093628ba" x="57.6" y="61.123278" style="stroke: #000000; stroke-width: 0.8"/>
      </g>
     </g>
     <g id="text_13">
      <!-- 80 -->
      <g transform="translate(37.875 64.922497)scale(0.1 -0.1)">
       <defs>
        <path id="DejaVuSans-38" d="M 2034 2216 
Q 1584 2216 1326 1975 
Q 1069 1734 1069 1313 
Q 1069 891 1326 650 
Q 1584 409 2034 409 
Q 2484 409 2743 651 
Q 3003 894 3003 1313 
Q 3003 1734 2745 1975 
Q 2488 2216 2034 2216 
z
M 1403 2484 
Q 997 2584 770 2862 
Q 544 3141 544 3541 
Q 544 4100 942 4425 
Q 1341 4750 2034 4750 
Q 2731 4750 3128 4425 
Q 3525 4100 3525 3541 
Q 3525 3141 3298 2862 
Q 3072 2584 2669 2484 
Q 3125 2378 3379 2068 
Q 3634 1759 3634 1313 
Q 3634 634 3220 271 
Q 2806 -91 2034 -91 
Q 1263 -91 848 271 
Q 434 634 434 1313 
Q 434 1759 690 2068 
Q 947 2378 1403 2484 
z
M 1172 3481 
Q 1172 3119 1398 2916 
Q 1625 2713 2034 2713 
Q 2441 2713 2670 2916 
Q 2900 3119 2900 3481 
Q 2900 3844 2670 4047 
Q 2441 4250 2034 4250 
Q 1625 4250 1398 4047 
Q 1172 3844 1172 3481 
z
" transform="scale(0.015625)"/>
       </defs>
       <use xlink:href="#DejaVuSans-38"/>
       <use xlink:href="#DejaVuSans-30" x="63.623047"/>
      </g>
     </g>
    </g>
    <g id="text_14">
     <!-- life_expectancy -->
     <g transform="translate(31.517187 213.492844)rotate(-90)scale(0.1 -0.1)">
      <defs>
       <path id="DejaVuSans-6c" d="M 603 4863 
L 1178 4863 
L 1178 0 
L 603 0 
L 603 4863 
z
" transform="scale(0.015625)"/>
       <path id="DejaVuSans-66" d="M 2375 4863 
L 2375 4384 
L 1825 4384 
Q 1516 4384 1395 4259 
Q 1275 4134 1275 3809 
L 1275 3500 
L 2222 3500 
L 2222 3053 
L 1275 3053 
L 1275 0 
L 697 0 
L 697 3053 
L 147 3053 
L 147 3500 
L 697 3500 
L 697 3744 
Q 697 4328 969 4595 
Q 1241 4863 1831 4863 
L 2375 4863 
z
" transform="scale(0.015625)"/>
       <path id="DejaVuSans-78" d="M 3513 3500 
L 2247 1797 
L 3578 0 
L 2900 0 
L 1881 1375 
L 863 0 
L 184 0 
L 1544 1831 
L 300 3500 
L 978 3500 
L 1906 2253 
L 2834 3500 
L 3513 3500 
z
" transform="scale(0.015625)"/>
       <path id="DejaVuSans-6e" d="M 3513 2113 
L 3513 0 
L 2938 0 
L 2938 2094 
Q 2938 2591 2744 2837 
Q 2550 3084 2163 3084 
Q 1697 3084 1428 2787 
Q 1159 2491 1159 1978 
L 1159 0 
L 581 0 
L 581 3500 
L 1159 3500 
L 1159 2956 
Q 1366 3272 1645 3428 
Q 1925 3584 2291 3584 
Q 2894 3584 3203 3211 
Q 3513 2838 3513 2113 
z
" transform="scale(0.015625)"/>
       <path id="DejaVuSans-79" d="M 2059 -325 
Q 1816 -950 1584 -1140 
Q 1353 -1331 966 -1331 
L 506 -1331 
L 506 -850 
L 844 -850 
Q 1081 -850 1212 -737 
Q 1344 -625 1503 -206 
L 1606 56 
L 191 3500 
L 800 3500 
L 1894 763 
L 2988 3500 
L 3597 3500 
L 2059 -325 
z
" transform="scale(0.015625)"/>
      </defs>
      <use xlink:href="#DejaVuSans-6c"/>
      <use xlink:href="#DejaVuSans-69" x="27.783203"/>
      <use xlink:href="#DejaVuSans-66" x="55.566406"/>
      <use xlink:href="#DejaVuSans-65" x="90.771484"/>
      <use xlink:href="#DejaVuSans-5f" x="152.294922"/>
      <use xlink:href="#DejaVuSans-65" x="202.294922"/>
      <use xlink:href="#DejaVuSans-78" x="262.068359"/>
      <use xlink:href="#DejaVuSans-70" x="321.248047"/>
      <use xlink:href="#DejaVuSans-65" x="384.724609"/>
      <use xlink:href="#DejaVuSans-63" x="446.248047"/>
      <use xlink:href="#DejaVuSans-74" x="501.228516"/>
      <use xlink:href="#DejaVuSans-61" x="540.4375"/>
      <use xlink:href="#DejaVuSans-6e" x="601.716797"/>
      <use xlink:href="#DejaVuSans-63" x="665.095703"/>
      <use xlink:href="#DejaVuSans-79" x="720.076172"/>
     </g>
    </g>
   </g>
   <g id="patch_3">
    <path d="M 57.6 307.584 
L 57.6 41.472 
" style="fill: none; stroke: #000000; stroke-width: 0.8; stroke-linejoin: miter; stroke-linecap: square"/>
   </g>
   <g id="patch_4">
    <path d="M 414.72 307.584 
L 414.72 41.472 
" style="fill: none; stroke: #000000; stroke-width: 0.8; stroke-linejoin: miter; stroke-linecap: square"/>
   </g>
   <g id="patch_5">
    <path d="M 57.6 307.584 
L 414.72 307.584 
" style="fill: none; stroke: #000000; stroke-width: 0.8; stroke-linejoin: miter; stroke-linecap: square"/>
   </g>
   <g id="patch_6">
    <path d="M 57.6 41.472 
L 414.72 41.472 
" style="fill: none; stroke: #000000; stroke-width: 0.8; stroke-linejoin: miter; stroke-linecap: square"/>
   </g>
   <g id="text_15">
    <!-- Lebenserwartung und Wohlstand -->
    <g transform="translate(137.11125 35.472)scale(0.12 -0.12)">
     <defs>
      <path id="DejaVuSans-4c" d="M 628 4666 
L 1259 4666 
L 1259 531 
L 3531 531 
L 3531 0 
L 628 0 
L 628 4666 
z
" transform="scale(0.015625)"/>
      <path id="DejaVuSans-62" d="M 3116 1747 
Q 3116 2381 2855 2742 
Q 2594 3103 2138 3103 
Q 1681 3103 1420 2742 
Q 1159 2381 1159 1747 
Q 1159 1113 1420 752 
Q 1681 391 2138 391 
Q 2594 391 2855 752 
Q 3116 1113 3116 1747 
z
M 1159 2969 
Q 1341 3281 1617 3432 
Q 1894 3584 2278 3584 
Q 2916 3584 3314 3078 
Q 3713 2572 3713 1747 
Q 3713 922 3314 415 
Q 2916 -91 2278 -91 
Q 1894 -91 1617 61 
Q 1341 213 1159 525 
L 1159 0 
L 581 0 
L 581 4863 
L 1159 4863 
L 1159 2969 
z
" transform="scale(0.015625)"/>
      <path id="DejaVuSans-73" d="M 2834 3397 
L 2834 2853 
Q 2591 2978 2328 3040 
Q 2066 3103 1784 3103 
Q 1356 3103 1142 2972 
Q 928 2841 928 2578 
Q 928 2378 1081 2264 
Q 1234 2150 1697 2047 
L 1894 2003 
Q 2506 1872 2764 1633 
Q 3022 1394 3022 966 
Q 3022 478 2636 193 
Q 2250 -91 1575 -91 
Q 1294 -91 989 -36 
Q 684 19 347 128 
L 347 722 
Q 666 556 975 473 
Q 1284 391 1588 391 
Q 1994 391 2212 530 
Q 2431 669 2431 922 
Q 2431 1156 2273 1281 
Q 2116 1406 1581 1522 
L 1381 1569 
Q 847 1681 609 1914 
Q 372 2147 372 2553 
Q 372 3047 722 3315 
Q 1072 3584 1716 3584 
Q 2034 3584 2315 3537 
Q 2597 3491 2834 3397 
z
" transform="scale(0.015625)"/>
      <path id="DejaVuSans-77" d="M 269 3500 
L 844 3500 
L 1563 769 
L 2278 3500 
L 2956 3500 
L 3675 769 
L 4391 3500 
L 4966 3500 
L 4050 0 
L 3372 0 
L 2619 2869 
L 1863 0 
L 1184 0 
L 269 3500 
z
" transform="scale(0.015625)"/>
      <path id="DejaVuSans-75" d="M 544 1381 
L 544 3500 
L 1119 3500 
L 1119 1403 
Q 1119 906 1312 657 
Q 1506 409 1894 409 
Q 2359 409 2629 706 
Q 2900 1003 2900 1516 
L 2900 3500 
L 3475 3500 
L 3475 0 
L 2900 0 
L 2900 538 
Q 2691 219 2414 64 
Q 2138 -91 1772 -91 
Q 1169 -91 856 284 
Q 544 659 544 1381 
z
M 1991 3584 
L 1991 3584 
z
" transform="scale(0.015625)"/>
      <path id="DejaVuSans-20" transform="scale(0.015625)"/>
      <path id="DejaVuSans-57" d="M 213 4666 
L 850 4666 
L 1831 722 
L 2809 4666 
L 3519 4666 
L 4500 722 
L 5478 4666 
L 6119 4666 
L 4947 0 
L 4153 0 
L 3169 4050 
L 2175 0 
L 1381 0 
L 213 4666 
z
" transform="scale(0.015625)"/>
      <path id="DejaVuSans-6f" d="M 1959 3097 
Q 1497 3097 1228 2736 
Q 959 2375 959 1747 
Q 959 1119 1226 758 
Q 1494 397 1959 397 
Q 2419 397 2687 759 
Q 2956 1122 2956 1747 
Q 2956 2369 2687 2733 
Q 2419 3097 1959 3097 
z
M 1959 3584 
Q 2709 3584 3137 3096 
Q 3566 2609 3566 1747 
Q 3566 888 3137 398 
Q 2709 -91 1959 -91 
Q 1206 -91 779 398 
Q 353 888 353 1747 
Q 353 2609 779 3096 
Q 1206 3584 1959 3584 
z
" transform="scale(0.015625)"/>
      <path id="DejaVuSans-68" d="M 3513 2113 
L 3513 0 
L 2938 0 
L 2938 2094 
Q 2938 2591 2744 2837 
Q 2550 3084 2163 3084 
Q 1697 3084 1428 2787 
Q 1159 2491 1159 1978 
L 1159 0 
L 581 0 
L 581 4863 
L 1159 4863 
L 1159 2956 
Q 1366 3272 1645 3428 
Q 1925 3584 2291 3584 
Q 2894 3584 3203 3211 
Q 3513 2838 3513 2113 
z
" transform="scale(0.015625)"/>
     </defs>
     <use xlink:href="#DejaVuSans-4c"/>
     <use xlink:href="#DejaVuSans-65" x="53.962891"/>
     <use xlink:href="#DejaVuSans-62" x="115.486328"/>
     <use xlink:href="#DejaVuSans-65" x="178.962891"/>
     <use xlink:href="#DejaVuSans-6e" x="240.486328"/>
     <use xlink:href="#DejaVuSans-73" x="303.865234"/>
     <use xlink:href="#DejaVuSans-65" x="355.964844"/>
     <use xlink:href="#DejaVuSans-72" x="417.488281"/>
     <use xlink:href="#DejaVuSans-77" x="458.601562"/>
     <use xlink:href="#DejaVuSans-61" x="540.388672"/>
     <use xlink:href="#DejaVuSans-72" x="601.667969"/>
     <use xlink:href="#DejaVuSans-74" x="642.78125"/>
     <use xlink:href="#DejaVuSans-75" x="681.990234"/>
     <use xlink:href="#DejaVuSans-6e" x="745.369141"/>
     <use xlink:href="#DejaVuSans-67" x="808.748047"/>
     <use xlink:href="#DejaVuSans-20" x="872.224609"/>
     <use xlink:href="#DejaVuSans-75" x="904.011719"/>
     <use xlink:href="#DejaVuSans-6e" x="967.390625"/>
     <use xlink:href="#DejaVuSans-64" x="1030.769531"/>
     <use xlink:href="#DejaVuSans-20" x="1094.246094"/>
     <use xlink:href="#DejaVuSans-57" x="1126.033203"/>
     <use xlink:href="#DejaVuSans-6f" x="1219.035156"/>
     <use xlink:href="#DejaVuSans-68" x="1280.216797"/>
     <use xlink:href="#DejaVuSans-6c" x="1343.595703"/>
     <use xlink:href="#DejaVuSans-73" x="1371.378906"/>
     <use xlink:href="#DejaVuSans-74" x="1423.478516"/>
     <use xlink:href="#DejaVuSans-61" x="1462.6875"/>
     <use xlink:href="#DejaVuSans-6e" x="1523.966797"/>
     <use xlink:href="#DejaVuSans-64" x="1587.345703"/>
    </g>
   </g>
  </g>
 </g>
 <defs>
  <clipPath id="p87fdeca5e5">
   <rect x="57.6" y="41.472" width="357.12" height="266.112"/>
  </clipPath>
 </defs>
</svg>
